<mxfile host="app.diagrams.net" agent="Mozilla/5.0 (Macintosh; Intel Mac OS X 10_15_7) AppleWebKit/537.36 (KHTML, like Gecko) Chrome/128.0.0.0 Safari/537.36" version="24.7.12">
  <diagram name="第 1 页" id="HKVt_k5tH0fLXsPrs9A6">
    <mxGraphModel dx="833" dy="601" grid="0" gridSize="10" guides="1" tooltips="1" connect="1" arrows="1" fold="1" page="1" pageScale="1" pageWidth="827" pageHeight="1169" math="0" shadow="0">
      <root>
        <mxCell id="0" />
        <mxCell id="1" parent="0" />
        <mxCell id="16KgagcUN6PutXQDWh4l-27" value="" style="ellipse;whiteSpace=wrap;html=1;fillColor=none;strokeColor=#FF0000;" vertex="1" parent="1">
          <mxGeometry x="683" y="138.45" width="85" height="50" as="geometry" />
        </mxCell>
        <mxCell id="5cclyy-iysGm8LfKQ8Wr-7" style="edgeStyle=orthogonalEdgeStyle;rounded=0;orthogonalLoop=1;jettySize=auto;html=1;entryX=0;entryY=0.5;entryDx=0;entryDy=0;" parent="1" source="5cclyy-iysGm8LfKQ8Wr-3" target="5cclyy-iysGm8LfKQ8Wr-6" edge="1">
          <mxGeometry relative="1" as="geometry" />
        </mxCell>
        <mxCell id="5cclyy-iysGm8LfKQ8Wr-3" value="" style="rounded=0;whiteSpace=wrap;html=1;fillColor=#fff2cc;strokeColor=#d6b656;" parent="1" vertex="1">
          <mxGeometry x="38" y="373.75" width="149" height="92" as="geometry" />
        </mxCell>
        <mxCell id="jBnZAekhUY2tLa8E34gz-23" style="edgeStyle=orthogonalEdgeStyle;rounded=0;orthogonalLoop=1;jettySize=auto;html=1;entryX=0;entryY=0.5;entryDx=0;entryDy=0;" parent="1" source="jBnZAekhUY2tLa8E34gz-1" target="jBnZAekhUY2tLa8E34gz-21" edge="1">
          <mxGeometry relative="1" as="geometry" />
        </mxCell>
        <mxCell id="jBnZAekhUY2tLa8E34gz-1" value="LLM" style="rounded=1;whiteSpace=wrap;html=1;fillColor=#dae8fc;strokeColor=#6c8ebf;" parent="1" vertex="1">
          <mxGeometry x="243" y="92" width="54" height="38" as="geometry" />
        </mxCell>
        <mxCell id="jBnZAekhUY2tLa8E34gz-20" style="edgeStyle=orthogonalEdgeStyle;rounded=0;orthogonalLoop=1;jettySize=auto;html=1;" parent="1" source="jBnZAekhUY2tLa8E34gz-19" target="jBnZAekhUY2tLa8E34gz-1" edge="1">
          <mxGeometry relative="1" as="geometry" />
        </mxCell>
        <mxCell id="jBnZAekhUY2tLa8E34gz-19" value="我喜歡吃" style="text;html=1;align=center;verticalAlign=middle;whiteSpace=wrap;rounded=0;strokeColor=default;" parent="1" vertex="1">
          <mxGeometry x="135" y="96" width="73" height="30" as="geometry" />
        </mxCell>
        <mxCell id="jBnZAekhUY2tLa8E34gz-41" style="edgeStyle=orthogonalEdgeStyle;rounded=0;orthogonalLoop=1;jettySize=auto;html=1;entryX=0.5;entryY=0;entryDx=0;entryDy=0;" parent="1" source="jBnZAekhUY2tLa8E34gz-21" target="jBnZAekhUY2tLa8E34gz-28" edge="1">
          <mxGeometry relative="1" as="geometry">
            <Array as="points">
              <mxPoint x="350" y="145" />
              <mxPoint x="166" y="145" />
            </Array>
          </mxGeometry>
        </mxCell>
        <mxCell id="jBnZAekhUY2tLa8E34gz-21" value="蘋" style="text;html=1;align=center;verticalAlign=middle;whiteSpace=wrap;rounded=0;strokeColor=default;" parent="1" vertex="1">
          <mxGeometry x="333" y="96" width="33" height="30" as="geometry" />
        </mxCell>
        <mxCell id="jBnZAekhUY2tLa8E34gz-25" style="edgeStyle=orthogonalEdgeStyle;rounded=0;orthogonalLoop=1;jettySize=auto;html=1;entryX=0;entryY=0.5;entryDx=0;entryDy=0;" parent="1" source="jBnZAekhUY2tLa8E34gz-26" target="jBnZAekhUY2tLa8E34gz-29" edge="1">
          <mxGeometry relative="1" as="geometry" />
        </mxCell>
        <mxCell id="jBnZAekhUY2tLa8E34gz-26" value="LLM" style="rounded=1;whiteSpace=wrap;html=1;fillColor=#dae8fc;strokeColor=#6c8ebf;" parent="1" vertex="1">
          <mxGeometry x="243" y="164" width="54" height="38" as="geometry" />
        </mxCell>
        <mxCell id="jBnZAekhUY2tLa8E34gz-27" style="edgeStyle=orthogonalEdgeStyle;rounded=0;orthogonalLoop=1;jettySize=auto;html=1;" parent="1" source="jBnZAekhUY2tLa8E34gz-28" target="jBnZAekhUY2tLa8E34gz-26" edge="1">
          <mxGeometry relative="1" as="geometry" />
        </mxCell>
        <mxCell id="jBnZAekhUY2tLa8E34gz-28" value="我喜歡吃蘋" style="text;html=1;align=center;verticalAlign=middle;whiteSpace=wrap;rounded=0;strokeColor=default;" parent="1" vertex="1">
          <mxGeometry x="124" y="168" width="84" height="30" as="geometry" />
        </mxCell>
        <mxCell id="jBnZAekhUY2tLa8E34gz-42" style="edgeStyle=orthogonalEdgeStyle;rounded=0;orthogonalLoop=1;jettySize=auto;html=1;entryX=0.5;entryY=0;entryDx=0;entryDy=0;" parent="1" source="jBnZAekhUY2tLa8E34gz-29" target="jBnZAekhUY2tLa8E34gz-33" edge="1">
          <mxGeometry relative="1" as="geometry">
            <Array as="points">
              <mxPoint x="350" y="216" />
              <mxPoint x="166" y="216" />
            </Array>
          </mxGeometry>
        </mxCell>
        <mxCell id="jBnZAekhUY2tLa8E34gz-29" value="果" style="text;html=1;align=center;verticalAlign=middle;whiteSpace=wrap;rounded=0;strokeColor=default;" parent="1" vertex="1">
          <mxGeometry x="333" y="168" width="33" height="30" as="geometry" />
        </mxCell>
        <mxCell id="jBnZAekhUY2tLa8E34gz-30" style="edgeStyle=orthogonalEdgeStyle;rounded=0;orthogonalLoop=1;jettySize=auto;html=1;entryX=0;entryY=0.5;entryDx=0;entryDy=0;" parent="1" source="jBnZAekhUY2tLa8E34gz-31" target="jBnZAekhUY2tLa8E34gz-34" edge="1">
          <mxGeometry relative="1" as="geometry" />
        </mxCell>
        <mxCell id="jBnZAekhUY2tLa8E34gz-31" value="LLM" style="rounded=1;whiteSpace=wrap;html=1;fillColor=#dae8fc;strokeColor=#6c8ebf;" parent="1" vertex="1">
          <mxGeometry x="243" y="235" width="54" height="38" as="geometry" />
        </mxCell>
        <mxCell id="jBnZAekhUY2tLa8E34gz-32" style="edgeStyle=orthogonalEdgeStyle;rounded=0;orthogonalLoop=1;jettySize=auto;html=1;" parent="1" source="jBnZAekhUY2tLa8E34gz-33" target="jBnZAekhUY2tLa8E34gz-31" edge="1">
          <mxGeometry relative="1" as="geometry" />
        </mxCell>
        <mxCell id="jBnZAekhUY2tLa8E34gz-33" value="我喜歡吃蘋果" style="text;html=1;align=center;verticalAlign=middle;whiteSpace=wrap;rounded=0;strokeColor=default;" parent="1" vertex="1">
          <mxGeometry x="124" y="239" width="84" height="30" as="geometry" />
        </mxCell>
        <mxCell id="jBnZAekhUY2tLa8E34gz-34" value="END" style="text;html=1;align=center;verticalAlign=middle;whiteSpace=wrap;rounded=0;strokeColor=#b85450;fillColor=#f8cecc;" parent="1" vertex="1">
          <mxGeometry x="333" y="239" width="33" height="30" as="geometry" />
        </mxCell>
        <mxCell id="jBnZAekhUY2tLa8E34gz-35" style="edgeStyle=orthogonalEdgeStyle;rounded=0;orthogonalLoop=1;jettySize=auto;html=1;entryX=0;entryY=0.5;entryDx=0;entryDy=0;" parent="1" source="jBnZAekhUY2tLa8E34gz-36" target="jBnZAekhUY2tLa8E34gz-39" edge="1">
          <mxGeometry relative="1" as="geometry" />
        </mxCell>
        <mxCell id="jBnZAekhUY2tLa8E34gz-36" value="LLM" style="rounded=1;whiteSpace=wrap;html=1;fillColor=#dae8fc;strokeColor=#6c8ebf;" parent="1" vertex="1">
          <mxGeometry x="243" y="23" width="54" height="38" as="geometry" />
        </mxCell>
        <mxCell id="jBnZAekhUY2tLa8E34gz-37" style="edgeStyle=orthogonalEdgeStyle;rounded=0;orthogonalLoop=1;jettySize=auto;html=1;" parent="1" source="jBnZAekhUY2tLa8E34gz-38" target="jBnZAekhUY2tLa8E34gz-36" edge="1">
          <mxGeometry relative="1" as="geometry" />
        </mxCell>
        <mxCell id="jBnZAekhUY2tLa8E34gz-38" value="我喜歡" style="text;html=1;align=center;verticalAlign=middle;whiteSpace=wrap;rounded=0;strokeColor=default;" parent="1" vertex="1">
          <mxGeometry x="135" y="27" width="73" height="30" as="geometry" />
        </mxCell>
        <mxCell id="jBnZAekhUY2tLa8E34gz-40" style="edgeStyle=orthogonalEdgeStyle;rounded=0;orthogonalLoop=1;jettySize=auto;html=1;entryX=0.5;entryY=0;entryDx=0;entryDy=0;" parent="1" source="jBnZAekhUY2tLa8E34gz-39" target="jBnZAekhUY2tLa8E34gz-19" edge="1">
          <mxGeometry relative="1" as="geometry">
            <Array as="points">
              <mxPoint x="349" y="76" />
              <mxPoint x="171" y="76" />
            </Array>
          </mxGeometry>
        </mxCell>
        <mxCell id="jBnZAekhUY2tLa8E34gz-39" value="吃" style="text;html=1;align=center;verticalAlign=middle;whiteSpace=wrap;rounded=0;strokeColor=default;" parent="1" vertex="1">
          <mxGeometry x="333" y="27" width="33" height="30" as="geometry" />
        </mxCell>
        <mxCell id="jBnZAekhUY2tLa8E34gz-44" style="edgeStyle=orthogonalEdgeStyle;rounded=0;orthogonalLoop=1;jettySize=auto;html=1;entryX=0;entryY=0.5;entryDx=0;entryDy=0;" parent="1" source="jBnZAekhUY2tLa8E34gz-43" target="jBnZAekhUY2tLa8E34gz-38" edge="1">
          <mxGeometry relative="1" as="geometry" />
        </mxCell>
        <mxCell id="jBnZAekhUY2tLa8E34gz-43" value="使用者輸入" style="rounded=1;whiteSpace=wrap;html=1;fillColor=#ffe6cc;strokeColor=#d79b00;" parent="1" vertex="1">
          <mxGeometry x="36" y="21" width="73" height="42" as="geometry" />
        </mxCell>
        <mxCell id="5cclyy-iysGm8LfKQ8Wr-1" value="參考資料" style="sketch=0;pointerEvents=1;shadow=0;dashed=0;html=1;strokeColor=none;fillColor=#505050;labelPosition=center;verticalLabelPosition=bottom;verticalAlign=top;outlineConnect=0;align=center;shape=mxgraph.office.concepts.book_journal;" parent="1" vertex="1">
          <mxGeometry x="53.5" y="389.75" width="41" height="49" as="geometry" />
        </mxCell>
        <mxCell id="5cclyy-iysGm8LfKQ8Wr-4" value="+" style="text;html=1;align=center;verticalAlign=middle;whiteSpace=wrap;rounded=0;" parent="1" vertex="1">
          <mxGeometry x="80" y="399.25" width="60" height="30" as="geometry" />
        </mxCell>
        <mxCell id="5cclyy-iysGm8LfKQ8Wr-5" value="Prompt" style="text;html=1;align=center;verticalAlign=middle;whiteSpace=wrap;rounded=0;" parent="1" vertex="1">
          <mxGeometry x="80" y="462.75" width="60" height="30" as="geometry" />
        </mxCell>
        <mxCell id="5cclyy-iysGm8LfKQ8Wr-6" value="LLM" style="shape=image;verticalLabelPosition=bottom;labelBackgroundColor=default;verticalAlign=top;aspect=fixed;imageAspect=0;image=https://cdn-icons-png.flaticon.com/512/11865/11865326.png;" parent="1" vertex="1">
          <mxGeometry x="231" y="376.75" width="86" height="86" as="geometry" />
        </mxCell>
        <mxCell id="5cclyy-iysGm8LfKQ8Wr-12" value="一些指示" style="shape=image;html=1;verticalAlign=top;verticalLabelPosition=bottom;labelBackgroundColor=#ffffff;imageAspect=0;aspect=fixed;image=https://cdn4.iconfinder.com/data/icons/essential-app-2/16/chat-conversation-message-talk-128.png" parent="1" vertex="1">
          <mxGeometry x="124" y="391.5" width="47.25" height="47.25" as="geometry" />
        </mxCell>
        <mxCell id="16KgagcUN6PutXQDWh4l-1" value="" style="endArrow=classic;html=1;rounded=0;" edge="1" parent="1">
          <mxGeometry width="50" height="50" relative="1" as="geometry">
            <mxPoint x="592" y="293.25" as="sourcePoint" />
            <mxPoint x="592" y="114" as="targetPoint" />
          </mxGeometry>
        </mxCell>
        <mxCell id="16KgagcUN6PutXQDWh4l-2" value="" style="endArrow=classic;html=1;rounded=0;" edge="1" parent="1">
          <mxGeometry width="50" height="50" relative="1" as="geometry">
            <mxPoint x="552" y="253.25" as="sourcePoint" />
            <mxPoint x="753" y="253.25" as="targetPoint" />
          </mxGeometry>
        </mxCell>
        <mxCell id="16KgagcUN6PutXQDWh4l-3" value="" style="dashed=0;outlineConnect=0;html=1;align=center;labelPosition=center;verticalLabelPosition=bottom;verticalAlign=top;shape=mxgraph.webicons.apple;fillColor=#807E7E;gradientColor=#1B1C1C" vertex="1" parent="1">
          <mxGeometry x="722" y="148.25" width="30" height="30.4" as="geometry" />
        </mxCell>
        <mxCell id="16KgagcUN6PutXQDWh4l-4" value="&lt;span style=&quot;font-family: &amp;quot;Apple Color Emoji&amp;quot;, &amp;quot;Segoe UI Emoji&amp;quot;, NotoColorEmoji, &amp;quot;Noto Color Emoji&amp;quot;, &amp;quot;Segoe UI Symbol&amp;quot;, &amp;quot;Android Emoji&amp;quot;, EmojiSymbols; line-height: 1em; text-wrap: nowrap;&quot; aria-label=&quot;🍎&quot; role=&quot;img&quot;&gt;&lt;font style=&quot;font-size: 20px;&quot;&gt;🍎&lt;/font&gt;&lt;/span&gt;" style="text;html=1;align=center;verticalAlign=middle;whiteSpace=wrap;rounded=0;" vertex="1" parent="1">
          <mxGeometry x="683" y="154" width="30" height="30" as="geometry" />
        </mxCell>
        <mxCell id="16KgagcUN6PutXQDWh4l-5" value="&lt;span style=&quot;font-family: &amp;quot;Apple Color Emoji&amp;quot;, &amp;quot;Segoe UI Emoji&amp;quot;, NotoColorEmoji, &amp;quot;Noto Color Emoji&amp;quot;, &amp;quot;Segoe UI Symbol&amp;quot;, &amp;quot;Android Emoji&amp;quot;, EmojiSymbols; line-height: 1em; text-wrap: nowrap;&quot; aria-label=&quot;🍏&quot; role=&quot;img&quot;&gt;&lt;font style=&quot;font-size: 18px;&quot;&gt;🍏&lt;/font&gt;&lt;/span&gt;" style="text;html=1;align=center;verticalAlign=middle;whiteSpace=wrap;rounded=0;" vertex="1" parent="1">
          <mxGeometry x="692" y="107" width="30" height="30" as="geometry" />
        </mxCell>
        <mxCell id="16KgagcUN6PutXQDWh4l-7" value="&lt;span style=&quot;font-family: &amp;quot;Apple Color Emoji&amp;quot;, &amp;quot;Segoe UI Emoji&amp;quot;, NotoColorEmoji, &amp;quot;Noto Color Emoji&amp;quot;, &amp;quot;Segoe UI Symbol&amp;quot;, &amp;quot;Android Emoji&amp;quot;, EmojiSymbols; line-height: 1em; text-wrap: nowrap;&quot; aria-label=&quot;🍎&quot; role=&quot;img&quot;&gt;&lt;font style=&quot;font-size: 20px;&quot;&gt;🍌&lt;/font&gt;&lt;/span&gt;&lt;span style=&quot;color: rgba(0, 0, 0, 0); font-family: monospace; font-size: 0px; text-align: start; text-wrap: nowrap;&quot;&gt;%3CmxGraphModel%3E%3Croot%3E%3CmxCell%20id%3D%220%22%2F%3E%3CmxCell%20id%3D%221%22%20parent%3D%220%22%2F%3E%3CmxCell%20id%3D%222%22%20value%3D%22%26lt%3Bspan%20style%3D%26quot%3Bfont-family%3A%20%26amp%3Bquot%3BApple%20Color%20Emoji%26amp%3Bquot%3B%2C%20%26amp%3Bquot%3BSegoe%20UI%20Emoji%26amp%3Bquot%3B%2C%20NotoColorEmoji%2C%20%26amp%3Bquot%3BNoto%20Color%20Emoji%26amp%3Bquot%3B%2C%20%26amp%3Bquot%3BSegoe%20UI%20Symbol%26amp%3Bquot%3B%2C%20%26amp%3Bquot%3BAndroid%20Emoji%26amp%3Bquot%3B%2C%20EmojiSymbols%3B%20line-height%3A%201em%3B%20text-wrap%3A%20nowrap%3B%26quot%3B%20aria-label%3D%26quot%3B%F0%9F%8D%8E%26quot%3B%20role%3D%26quot%3Bimg%26quot%3B%26gt%3B%26lt%3Bfont%20style%3D%26quot%3Bfont-size%3A%2020px%3B%26quot%3B%26gt%3B%F0%9F%8D%8E%26lt%3B%2Ffont%26gt%3B%26lt%3B%2Fspan%26gt%3B%22%20style%3D%22text%3Bhtml%3D1%3Balign%3Dcenter%3BverticalAlign%3Dmiddle%3BwhiteSpace%3Dwrap%3Brounded%3D0%3B%22%20vertex%3D%221%22%20parent%3D%221%22%3E%3CmxGeometry%20x%3D%22710%22%20y%3D%22164%22%20width%3D%2230%22%20height%3D%2230%22%20as%3D%22geometry%22%2F%3E%3C%2FmxCell%3E%3C%2Froot%3E%3C%2FmxGraphModel%3E&lt;/span&gt;" style="text;html=1;align=center;verticalAlign=middle;whiteSpace=wrap;rounded=0;" vertex="1" parent="1">
          <mxGeometry x="643" y="114" width="30" height="30" as="geometry" />
        </mxCell>
        <mxCell id="16KgagcUN6PutXQDWh4l-8" value="&lt;span style=&quot;font-family: &amp;quot;Apple Color Emoji&amp;quot;, &amp;quot;Segoe UI Emoji&amp;quot;, NotoColorEmoji, &amp;quot;Noto Color Emoji&amp;quot;, &amp;quot;Segoe UI Symbol&amp;quot;, &amp;quot;Android Emoji&amp;quot;, EmojiSymbols; line-height: 1em; text-wrap: nowrap;&quot; aria-label=&quot;🍎&quot; role=&quot;img&quot;&gt;&lt;font style=&quot;font-size: 20px;&quot;&gt;&lt;span style=&quot;line-height: 1em; font-size: 1em;&quot; aria-label=&quot;🦙&quot; role=&quot;img&quot;&gt;🦙&lt;/span&gt;&lt;/font&gt;&lt;/span&gt;&lt;span style=&quot;color: rgba(0, 0, 0, 0); font-family: monospace; font-size: 0px; text-align: start; text-wrap: nowrap;&quot;&gt;%3CmxGraphModel%3E%3Croot%3E%3CmxCell%20id%3D%220%22%2F%3E%3CmxCell%20id%3D%221%22%20parent%3D%220%22%2F%3E%3CmxCell%20id%3D%222%22%20value%3D%22%26lt%3Bspan%20style%3D%26quot%3Bfont-family%3A%20%26amp%3Bquot%3BApple%20Color%20Emoji%26amp%3Bquot%3B%2C%20%26amp%3Bquot%3BSegoe%20UI%20Emoji%26amp%3Bquot%3B%2C%20NotoColorEmoji%2C%20%26amp%3Bquot%3BNoto%20Color%20Emoji%26amp%3Bquot%3B%2C%20%26amp%3Bquot%3BSegoe%20UI%20Symbol%26amp%3Bquot%3B%2C%20%26amp%3Bquot%3BAndroid%20Emoji%26amp%3Bquot%3B%2C%20EmojiSymbols%3B%20line-height%3A%201em%3B%20text-wrap%3A%20nowrap%3B%26quot%3B%20aria-label%3D%26quot%3B%F0%9F%8D%8E%26quot%3B%20role%3D%26quot%3Bimg%26quot%3B%26gt%3B%26lt%3Bfont%20style%3D%26quot%3Bfont-size%3A%2020px%3B%26quot%3B%26gt%3B%F0%9F%8D%8E%26lt%3B%2Ffont%26gt%3B%26lt%3B%2Fspan%26gt%3B%22%20style%3D%22text%3Bhtml%3D1%3Balign%3Dcenter%3BverticalAlign%3Dmiddle%3BwhiteSpace%3Dwrap%3Brounded%3D0%3B%22%20vertex%3D%221%22%20parent%3D%221%22%3E%3CmxGeometry%20x%3D%22710%22%20y%3D%22164%22%20width%3D%2230%22%20height%3D%2230%22%20as%3D%22geometry%22%2F%3E%3C%2FmxCell%3E%3C%2Froot%3E%3C%2FmxGraphModel%3E&lt;/span&gt;" style="text;html=1;align=center;verticalAlign=middle;whiteSpace=wrap;rounded=0;" vertex="1" parent="1">
          <mxGeometry x="593" y="154" width="30" height="30" as="geometry" />
        </mxCell>
        <mxCell id="16KgagcUN6PutXQDWh4l-9" value="&lt;span style=&quot;font-family: &amp;quot;Apple Color Emoji&amp;quot;, &amp;quot;Segoe UI Emoji&amp;quot;, NotoColorEmoji, &amp;quot;Noto Color Emoji&amp;quot;, &amp;quot;Segoe UI Symbol&amp;quot;, &amp;quot;Android Emoji&amp;quot;, EmojiSymbols; line-height: 1em; text-wrap: nowrap;&quot; aria-label=&quot;🍎&quot; role=&quot;img&quot;&gt;&lt;font style=&quot;font-size: 20px;&quot;&gt;&lt;span style=&quot;line-height: 1em; font-size: 1em;&quot; aria-label=&quot;🦙&quot; role=&quot;img&quot;&gt;&lt;span style=&quot;line-height: 1em; font-size: 1em;&quot; aria-label=&quot;🍺&quot; role=&quot;img&quot;&gt;🍺&lt;/span&gt;&lt;/span&gt;&lt;/font&gt;&lt;/span&gt;&lt;span style=&quot;color: rgba(0, 0, 0, 0); font-family: monospace; font-size: 0px; text-align: start; text-wrap: nowrap;&quot;&gt;%3CmxGraphModel%3E%3Croot%3E%3CmxCell%20id%3D%220%22%2F%3E%3CmxCell%20id%3D%221%22%20parent%3D%220%22%2F%3E%3CmxCell%20id%3D%222%22%20value%3D%22%26lt%3Bspan%20style%3D%26quot%3Bfont-family%3A%20%26amp%3Bquot%3BApple%20Color%20Emoji%26amp%3Bquot%3B%2C%20%26amp%3Bquot%3BSegoe%20UI%20Emoji%26amp%3Bquot%3B%2C%20NotoColorEmoji%2C%20%26amp%3Bquot%3BNoto%20Color%20Emoji%26amp%3Bquot%3B%2C%20%26amp%3Bquot%3BSegoe%20UI%20Symbol%26amp%3Bquot%3B%2C%20%26amp%3Bquot%3BAndroid%20Emoji%26amp%3Bquot%3B%2C%20EmojiSymbols%3B%20line-height%3A%201em%3B%20text-wrap%3A%20nowrap%3B%26quot%3B%20aria-label%3D%26quot%3B%F0%9F%8D%8E%26quot%3B%20role%3D%26quot%3Bimg%26quot%3B%26gt%3B%26lt%3Bfont%20style%3D%26quot%3Bfont-size%3A%2020px%3B%26quot%3B%26gt%3B%F0%9F%8D%8E%26lt%3B%2Ffont%26gt%3B%26lt%3B%2Fspan%26gt%3B%22%20style%3D%22text%3Bhtml%3D1%3Balign%3Dcenter%3BverticalAlign%3Dmiddle%3BwhiteSpace%3Dwrap%3Brounded%3D0%3B%22%20vertex%3D%221%22%20parent%3D%221%22%3E%3CmxGeometry%20x%3D%22710%22%20y%3D%22164%22%20width%3D%2230%22%20height%3D%2230%22%20as%3D%22geometry%22%2F%3E%3C%2FmxCell%3E%3C%2Froot%3E%3C%2FmxGraphModel%&lt;/span&gt;" style="text;html=1;align=center;verticalAlign=middle;whiteSpace=wrap;rounded=0;" vertex="1" parent="1">
          <mxGeometry x="713" y="193.25" width="30" height="30" as="geometry" />
        </mxCell>
        <mxCell id="16KgagcUN6PutXQDWh4l-10" value="&lt;span style=&quot;font-family: &amp;quot;Apple Color Emoji&amp;quot;, &amp;quot;Segoe UI Emoji&amp;quot;, NotoColorEmoji, &amp;quot;Noto Color Emoji&amp;quot;, &amp;quot;Segoe UI Symbol&amp;quot;, &amp;quot;Android Emoji&amp;quot;, EmojiSymbols; line-height: 1em; text-wrap: nowrap;&quot; aria-label=&quot;🍎&quot; role=&quot;img&quot;&gt;&lt;font style=&quot;font-size: 20px;&quot;&gt;&lt;span style=&quot;line-height: 1em; font-size: 1em;&quot; aria-label=&quot;🦙&quot; role=&quot;img&quot;&gt;&lt;span style=&quot;line-height: 1em; font-size: 1em;&quot; aria-label=&quot;🍺&quot; role=&quot;img&quot;&gt;&lt;span style=&quot;line-height: 1em; font-size: 1em;&quot; aria-label=&quot;🧠&quot; role=&quot;img&quot;&gt;🧠&lt;/span&gt;&lt;/span&gt;&lt;/span&gt;&lt;/font&gt;&lt;/span&gt;&lt;span style=&quot;color: rgba(0, 0, 0, 0); font-family: monospace; font-size: 0px; text-align: start; text-wrap: nowrap;&quot;&gt;%3CmxGraphModel%3E%3Croot%3E%3CmxCell%20id%3D%220%22%2F%3E%3CmxCell%20id%3D%221%22%20parent%3D%220%22%2F%3E%3CmxCell%20id%3D%222%22%20value%3D%22%26lt%3Bspan%20style%3D%26quot%3Bfont-family%3A%20%26amp%3Bquot%3BApple%20Color%20Emoji%26amp%3Bquot%3B%2C%20%26amp%3Bquot%3BSegoe%20UI%20Emoji%26amp%3Bquot%3B%2C%20NotoColorEmoji%2C%20%26amp%3Bquot%3BNoto%20Color%20Emoji%26amp%3Bquot%3B%2C%20%26amp%3Bquot%3BSegoe%20UI%20Symbol%26amp%3Bquot%3B%2C%20%26amp%3Bquot%3BAndroid%20Emoji%26amp%3Bquot%3B%2C%20EmojiSymbols%3B%20line-height%3A%201em%3B%20text-wrap%3A%20nowrap%3B%26quot%3B%20aria-label%3D%26quot%3B%F0%9F%8D%8E%26quot%3B%20role%3D%26quot%3Bimg%26quot%3B%26gt%3B%26lt%3Bfont%20style%3D%26quot%3Bfont-size%3A%2020px%3B%26quot%3B%26gt%3B%F0%9F%8D%8E%26lt%3B%2Ffont%26gt%3B%26lt%3B%2Fspan%26gt%3B%22%20style%3D%22text%3Bhtml%3D1%3Balign%3Dcenter%3BverticalAlign%3Dmiddle%3BwhiteSpace%3Dwrap%3Brounded%3D0%3B%22%20vertex%3D%221%22%20parent%3D%221%22%3E%3CmxGeometry%20x%3D%22710%22%20y%3D%22164%22%20width%3D%2230%22%20height%3D%2230%22%20as%3D%22geometry%22%2F%3E%3C%2FmxCell%3E%3C%2Froot%3E%3C%2FmxGraphModel%&lt;/span&gt;" style="text;html=1;align=center;verticalAlign=middle;whiteSpace=wrap;rounded=0;" vertex="1" parent="1">
          <mxGeometry x="623" y="193.25" width="30" height="30" as="geometry" />
        </mxCell>
        <mxCell id="16KgagcUN6PutXQDWh4l-11" value="&lt;span style=&quot;font-family: &amp;quot;Apple Color Emoji&amp;quot;, &amp;quot;Segoe UI Emoji&amp;quot;, NotoColorEmoji, &amp;quot;Noto Color Emoji&amp;quot;, &amp;quot;Segoe UI Symbol&amp;quot;, &amp;quot;Android Emoji&amp;quot;, EmojiSymbols; line-height: 1em; text-wrap: nowrap;&quot; aria-label=&quot;🍎&quot; role=&quot;img&quot;&gt;&lt;font style=&quot;font-size: 20px;&quot;&gt;&lt;span style=&quot;line-height: 1em; font-size: 1em;&quot; aria-label=&quot;🦙&quot; role=&quot;img&quot;&gt;&lt;span style=&quot;line-height: 1em; font-size: 1em;&quot; aria-label=&quot;🍺&quot; role=&quot;img&quot;&gt;🥰&lt;/span&gt;&lt;/span&gt;&lt;/font&gt;&lt;/span&gt;&lt;span style=&quot;color: rgba(0, 0, 0, 0); font-family: monospace; font-size: 0px; text-align: start; text-wrap: nowrap;&quot;&gt;%3CmxGraphModel%3E%3Croot%3E%3CmxCell%20id%3D%220%22%2F%3E%3CmxCell%20id%3D%221%22%20parent%3D%220%22%2F%3E%3CmxCell%20id%3D%222%22%20value%3D%22%26lt%3Bspan%20style%3D%26quot%3Bfont-family%3A%20%26amp%3Bquot%3BApple%20Color%20Emoji%26amp%3Bquot%3B%2C%20%26amp%3Bquot%3BSegoe%20UI%20Emoji%26amp%3Bquot%3B%2C%20NotoColorEmoji%2C%20%26amp%3Bquot%3BNoto%20Color%20Emoji%26amp%3Bquot%3B%2C%20%26amp%3Bquot%3BSegoe%20UI%20Symbol%26amp%3Bquot%3B%2C%20%26amp%3Bquot%3BAndroid%20Emoji%26amp%3Bquot%3B%2C%20EmojiSymbols%3B%20line-height%3A%201em%3B%20text-wrap%3A%20nowrap%3B%26quot%3B%20aria-label%3D%26quot%3B%F0%9F%8D%8E%26quot%3B%20role%3D%26quot%3Bimg%26quot%3B%26gt%3B%26lt%3Bfont%20style%3D%26quot%3Bfont-size%3A%2020px%3B%26quot%3B%26gt%3B%F0%9F%8D%8E%26lt%3B%2Ffont%26gt%3B%26lt%3B%2Fspan%26gt%3B%22%20style%3D%22text%3Bhtml%3D1%3Balign%3Dcenter%3BverticalAlign%3Dmiddle%3BwhiteSpace%3Dwrap%3Brounded%3D0%3B%22%20vertex%3D%221%22%20parent%3D%221%22%3E%3CmxGeometry%20x%3D%22710%22%20y%3D%22164%22%20width%3D%2230%22%20height%3D%2230%22%20as%3D%22geometry%22%2F%3E%3C%2FmxCell%3E%3C%2Froot%3E%3C%2FmxGraphModel%&lt;/span&gt;" style="text;html=1;align=center;verticalAlign=middle;whiteSpace=wrap;rounded=0;" vertex="1" parent="1">
          <mxGeometry x="643" y="223.25" width="30" height="30" as="geometry" />
        </mxCell>
        <mxCell id="16KgagcUN6PutXQDWh4l-12" value="&lt;span style=&quot;font-family: &amp;quot;Apple Color Emoji&amp;quot;, &amp;quot;Segoe UI Emoji&amp;quot;, NotoColorEmoji, &amp;quot;Noto Color Emoji&amp;quot;, &amp;quot;Segoe UI Symbol&amp;quot;, &amp;quot;Android Emoji&amp;quot;, EmojiSymbols; line-height: 1em; text-wrap: nowrap;&quot; aria-label=&quot;🍎&quot; role=&quot;img&quot;&gt;&lt;font style=&quot;font-size: 20px;&quot;&gt;&lt;span style=&quot;line-height: 1em; font-size: 1em;&quot; aria-label=&quot;🦙&quot; role=&quot;img&quot;&gt;🦙&lt;/span&gt;&lt;/font&gt;&lt;/span&gt;&lt;span style=&quot;color: rgba(0, 0, 0, 0); font-family: monospace; font-size: 0px; text-align: start; text-wrap: nowrap;&quot;&gt;%3CmxGraphModel%3E%3Croot%3E%3CmxCell%20id%3D%220%22%2F%3E%3CmxCell%20id%3D%221%22%20parent%3D%220%22%2F%3E%3CmxCell%20id%3D%222%22%20value%3D%22%26lt%3Bspan%20style%3D%26quot%3Bfont-family%3A%20%26amp%3Bquot%3BApple%20Color%20Emoji%26amp%3Bquot%3B%2C%20%26amp%3Bquot%3BSegoe%20UI%20Emoji%26amp%3Bquot%3B%2C%20NotoColorEmoji%2C%20%26amp%3Bquot%3BNoto%20Color%20Emoji%26amp%3Bquot%3B%2C%20%26amp%3Bquot%3BSegoe%20UI%20Symbol%26amp%3Bquot%3B%2C%20%26amp%3Bquot%3BAndroid%20Emoji%26amp%3Bquot%3B%2C%20EmojiSymbols%3B%20line-height%3A%201em%3B%20text-wrap%3A%20nowrap%3B%26quot%3B%20aria-label%3D%26quot%3B%F0%9F%8D%8E%26quot%3B%20role%3D%26quot%3Bimg%26quot%3B%26gt%3B%26lt%3Bfont%20style%3D%26quot%3Bfont-size%3A%2020px%3B%26quot%3B%26gt%3B%F0%9F%8D%8E%26lt%3B%2Ffont%26gt%3B%26lt%3B%2Fspan%26gt%3B%22%20style%3D%22text%3Bhtml%3D1%3Balign%3Dcenter%3BverticalAlign%3Dmiddle%3BwhiteSpace%3Dwrap%3Brounded%3D0%3B%22%20vertex%3D%221%22%20parent%3D%221%22%3E%3CmxGeometry%20x%3D%22710%22%20y%3D%22164%22%20width%3D%2230%22%20height%3D%2230%22%20as%3D%22geometry%22%2F%3E%3C%2FmxCell%3E%3C%2Froot%3E%3C%2FmxGraphModel%3E&lt;/span&gt;" style="text;html=1;align=center;verticalAlign=middle;whiteSpace=wrap;rounded=0;" vertex="1" parent="1">
          <mxGeometry x="623" y="30" width="30" height="30" as="geometry" />
        </mxCell>
        <mxCell id="16KgagcUN6PutXQDWh4l-13" value="&lt;span style=&quot;font-family: &amp;quot;Apple Color Emoji&amp;quot;, &amp;quot;Segoe UI Emoji&amp;quot;, NotoColorEmoji, &amp;quot;Noto Color Emoji&amp;quot;, &amp;quot;Segoe UI Symbol&amp;quot;, &amp;quot;Android Emoji&amp;quot;, EmojiSymbols; line-height: 1em; text-wrap: nowrap;&quot; aria-label=&quot;🍎&quot; role=&quot;img&quot;&gt;&lt;font style=&quot;font-size: 20px;&quot;&gt;&lt;span style=&quot;line-height: 1em; font-size: 1em;&quot; aria-label=&quot;🦙&quot; role=&quot;img&quot;&gt;&lt;span style=&quot;line-height: 1em; font-size: 1em;&quot; aria-label=&quot;🍺&quot; role=&quot;img&quot;&gt;🥰&lt;/span&gt;&lt;/span&gt;&lt;/font&gt;&lt;/span&gt;&lt;span style=&quot;color: rgba(0, 0, 0, 0); font-family: monospace; font-size: 0px; text-align: start; text-wrap: nowrap;&quot;&gt;%3CmxGraphModel%3E%3Croot%3E%3CmxCell%20id%3D%220%22%2F%3E%3CmxCell%20id%3D%221%22%20parent%3D%220%22%2F%3E%3CmxCell%20id%3D%222%22%20value%3D%22%26lt%3Bspan%20style%3D%26quot%3Bfont-family%3A%20%26amp%3Bquot%3BApple%20Color%20Emoji%26amp%3Bquot%3B%2C%20%26amp%3Bquot%3BSegoe%20UI%20Emoji%26amp%3Bquot%3B%2C%20NotoColorEmoji%2C%20%26amp%3Bquot%3BNoto%20Color%20Emoji%26amp%3Bquot%3B%2C%20%26amp%3Bquot%3BSegoe%20UI%20Symbol%26amp%3Bquot%3B%2C%20%26amp%3Bquot%3BAndroid%20Emoji%26amp%3Bquot%3B%2C%20EmojiSymbols%3B%20line-height%3A%201em%3B%20text-wrap%3A%20nowrap%3B%26quot%3B%20aria-label%3D%26quot%3B%F0%9F%8D%8E%26quot%3B%20role%3D%26quot%3Bimg%26quot%3B%26gt%3B%26lt%3Bfont%20style%3D%26quot%3Bfont-size%3A%2020px%3B%26quot%3B%26gt%3B%F0%9F%8D%8E%26lt%3B%2Ffont%26gt%3B%26lt%3B%2Fspan%26gt%3B%22%20style%3D%22text%3Bhtml%3D1%3Balign%3Dcenter%3BverticalAlign%3Dmiddle%3BwhiteSpace%3Dwrap%3Brounded%3D0%3B%22%20vertex%3D%221%22%20parent%3D%221%22%3E%3CmxGeometry%20x%3D%22710%22%20y%3D%22164%22%20width%3D%2230%22%20height%3D%2230%22%20as%3D%22geometry%22%2F%3E%3C%2FmxCell%3E%3C%2Froot%3E%3C%2FmxGraphModel%&lt;/span&gt;" style="text;html=1;align=center;verticalAlign=middle;whiteSpace=wrap;rounded=0;" vertex="1" parent="1">
          <mxGeometry x="623" y="59" width="30" height="30" as="geometry" />
        </mxCell>
        <mxCell id="16KgagcUN6PutXQDWh4l-14" value="&lt;span style=&quot;font-family: &amp;quot;Apple Color Emoji&amp;quot;, &amp;quot;Segoe UI Emoji&amp;quot;, NotoColorEmoji, &amp;quot;Noto Color Emoji&amp;quot;, &amp;quot;Segoe UI Symbol&amp;quot;, &amp;quot;Android Emoji&amp;quot;, EmojiSymbols; line-height: 1em; text-wrap: nowrap;&quot; aria-label=&quot;🍎&quot; role=&quot;img&quot;&gt;&lt;font style=&quot;font-size: 20px;&quot;&gt;🍎&lt;/font&gt;&lt;/span&gt;" style="text;html=1;align=center;verticalAlign=middle;whiteSpace=wrap;rounded=0;" vertex="1" parent="1">
          <mxGeometry x="693" y="59" width="30" height="30" as="geometry" />
        </mxCell>
        <mxCell id="16KgagcUN6PutXQDWh4l-15" value="&lt;span style=&quot;font-family: &amp;quot;Apple Color Emoji&amp;quot;, &amp;quot;Segoe UI Emoji&amp;quot;, NotoColorEmoji, &amp;quot;Noto Color Emoji&amp;quot;, &amp;quot;Segoe UI Symbol&amp;quot;, &amp;quot;Android Emoji&amp;quot;, EmojiSymbols; line-height: 1em; text-wrap: nowrap;&quot; aria-label=&quot;🍎&quot; role=&quot;img&quot;&gt;&lt;font style=&quot;font-size: 20px;&quot;&gt;👄&lt;/font&gt;&lt;/span&gt;" style="text;html=1;align=center;verticalAlign=middle;whiteSpace=wrap;rounded=0;" vertex="1" parent="1">
          <mxGeometry x="693" y="29" width="30" height="30" as="geometry" />
        </mxCell>
        <mxCell id="16KgagcUN6PutXQDWh4l-16" value="這隻羊駝" style="text;html=1;align=center;verticalAlign=middle;whiteSpace=wrap;rounded=0;" vertex="1" parent="1">
          <mxGeometry x="563" y="30" width="60" height="30" as="geometry" />
        </mxCell>
        <mxCell id="16KgagcUN6PutXQDWh4l-17" value="蘋果" style="text;html=1;align=center;verticalAlign=middle;whiteSpace=wrap;rounded=0;" vertex="1" parent="1">
          <mxGeometry x="653" y="57" width="60" height="30" as="geometry" />
        </mxCell>
        <mxCell id="16KgagcUN6PutXQDWh4l-18" value="喜歡" style="text;html=1;align=center;verticalAlign=middle;whiteSpace=wrap;rounded=0;" vertex="1" parent="1">
          <mxGeometry x="573" y="57.5" width="60" height="30" as="geometry" />
        </mxCell>
        <mxCell id="16KgagcUN6PutXQDWh4l-19" value="吃" style="text;html=1;align=center;verticalAlign=middle;whiteSpace=wrap;rounded=0;" vertex="1" parent="1">
          <mxGeometry x="653" y="27" width="60" height="30" as="geometry" />
        </mxCell>
        <mxCell id="16KgagcUN6PutXQDWh4l-20" value="&lt;span style=&quot;font-family: &amp;quot;Apple Color Emoji&amp;quot;, &amp;quot;Segoe UI Emoji&amp;quot;, NotoColorEmoji, &amp;quot;Noto Color Emoji&amp;quot;, &amp;quot;Segoe UI Symbol&amp;quot;, &amp;quot;Android Emoji&amp;quot;, EmojiSymbols; line-height: 1em; text-wrap: nowrap;&quot; aria-label=&quot;🍎&quot; role=&quot;img&quot;&gt;&lt;font style=&quot;font-size: 20px;&quot;&gt;👄&lt;/font&gt;&lt;/span&gt;" style="text;html=1;align=center;verticalAlign=middle;whiteSpace=wrap;rounded=0;" vertex="1" parent="1">
          <mxGeometry x="602" y="225.5" width="30" height="30" as="geometry" />
        </mxCell>
        <mxCell id="16KgagcUN6PutXQDWh4l-21" value="&lt;span style=&quot;font-family: &amp;quot;Apple Color Emoji&amp;quot;, &amp;quot;Segoe UI Emoji&amp;quot;, NotoColorEmoji, &amp;quot;Noto Color Emoji&amp;quot;, &amp;quot;Segoe UI Symbol&amp;quot;, &amp;quot;Android Emoji&amp;quot;, EmojiSymbols; line-height: 1em; text-wrap: nowrap;&quot; aria-label=&quot;🍎&quot; role=&quot;img&quot;&gt;&lt;font size=&quot;1&quot; style=&quot;&quot;&gt;&lt;span style=&quot;line-height: 1em;&quot; aria-label=&quot;🥧&quot; role=&quot;img&quot;&gt;🥧&lt;/span&gt;&lt;/font&gt;&lt;/span&gt;" style="text;html=1;align=center;verticalAlign=middle;whiteSpace=wrap;rounded=0;" vertex="1" parent="1">
          <mxGeometry x="702" y="144" width="20" height="19" as="geometry" />
        </mxCell>
        <mxCell id="16KgagcUN6PutXQDWh4l-31" style="edgeStyle=orthogonalEdgeStyle;rounded=0;orthogonalLoop=1;jettySize=auto;html=1;entryX=0;entryY=0.5;entryDx=0;entryDy=0;" edge="1" parent="1" source="16KgagcUN6PutXQDWh4l-23" target="16KgagcUN6PutXQDWh4l-30">
          <mxGeometry relative="1" as="geometry" />
        </mxCell>
        <mxCell id="16KgagcUN6PutXQDWh4l-23" value="" style="rounded=0;whiteSpace=wrap;html=1;fillColor=#fff2cc;strokeColor=#d6b656;" vertex="1" parent="1">
          <mxGeometry x="842" y="137" width="170" height="100" as="geometry" />
        </mxCell>
        <mxCell id="16KgagcUN6PutXQDWh4l-25" value="上下文：&lt;span style=&quot;font-family: &amp;quot;Apple Color Emoji&amp;quot;, &amp;quot;Segoe UI Emoji&amp;quot;, NotoColorEmoji, &amp;quot;Noto Color Emoji&amp;quot;, &amp;quot;Segoe UI Symbol&amp;quot;, &amp;quot;Android Emoji&amp;quot;, EmojiSymbols; font-size: 20px; text-wrap: nowrap;&quot;&gt;🍎&lt;/span&gt;" style="text;html=1;align=center;verticalAlign=middle;whiteSpace=wrap;rounded=0;" vertex="1" parent="1">
          <mxGeometry x="842" y="146.25" width="135.5" height="30" as="geometry" />
        </mxCell>
        <mxCell id="16KgagcUN6PutXQDWh4l-24" value="問題：蘋果是什麼顏色？" style="text;html=1;align=center;verticalAlign=middle;whiteSpace=wrap;rounded=0;" vertex="1" parent="1">
          <mxGeometry x="859.25" y="197" width="135.5" height="30" as="geometry" />
        </mxCell>
        <mxCell id="16KgagcUN6PutXQDWh4l-28" value="" style="dashed=0;outlineConnect=0;html=1;align=center;labelPosition=center;verticalLabelPosition=bottom;verticalAlign=top;shape=mxgraph.webicons.apple;fillColor=#807E7E;gradientColor=#1B1C1C" vertex="1" parent="1">
          <mxGeometry x="960.5" y="145.85000000000002" width="30" height="30.4" as="geometry" />
        </mxCell>
        <mxCell id="16KgagcUN6PutXQDWh4l-29" value="Prompt" style="text;html=1;align=center;verticalAlign=middle;whiteSpace=wrap;rounded=0;" vertex="1" parent="1">
          <mxGeometry x="892" y="237" width="60" height="30" as="geometry" />
        </mxCell>
        <mxCell id="16KgagcUN6PutXQDWh4l-34" style="edgeStyle=orthogonalEdgeStyle;rounded=0;orthogonalLoop=1;jettySize=auto;html=1;entryX=0;entryY=0.5;entryDx=0;entryDy=0;" edge="1" parent="1" source="16KgagcUN6PutXQDWh4l-30" target="16KgagcUN6PutXQDWh4l-32">
          <mxGeometry relative="1" as="geometry" />
        </mxCell>
        <mxCell id="16KgagcUN6PutXQDWh4l-30" value="&lt;font style=&quot;font-size: 17px;&quot;&gt;LLM🧠&lt;/font&gt;" style="rounded=1;whiteSpace=wrap;html=1;fillColor=#ffe6cc;strokeColor=#d79b00;" vertex="1" parent="1">
          <mxGeometry x="1043" y="157" width="83" height="60" as="geometry" />
        </mxCell>
        <mxCell id="16KgagcUN6PutXQDWh4l-32" value="如果你是說可食用的蘋果，那可能是紅色的。如果你說的是蘋果公司的 Logo，那可能是白色的" style="rounded=0;whiteSpace=wrap;html=1;align=center;" vertex="1" parent="1">
          <mxGeometry x="1157" y="137" width="170" height="100" as="geometry" />
        </mxCell>
        <mxCell id="16KgagcUN6PutXQDWh4l-35" value="Response" style="text;html=1;align=center;verticalAlign=middle;whiteSpace=wrap;rounded=0;" vertex="1" parent="1">
          <mxGeometry x="1216" y="237" width="60" height="30" as="geometry" />
        </mxCell>
      </root>
    </mxGraphModel>
  </diagram>
</mxfile>
